<svg width="20" height="20" viewBox="0 0 20 20" fill="none" xmlns="http://www.w3.org/2000/svg">
<g clip-path="url(#clip0_598_2172)">
<path d="M9.16634 7.50001H12.4997C12.7207 7.50001 12.9327 7.41221 13.0889 7.25593C13.2452 7.09965 13.333 6.88769 13.333 6.66668C13.333 6.44566 13.2452 6.2337 13.0889 6.07742C12.9327 5.92114 12.7207 5.83334 12.4997 5.83334H10.833V5.00001C10.833 4.779 10.7452 4.56703 10.5889 4.41075C10.4327 4.25447 10.2207 4.16668 9.99968 4.16668C9.77866 4.16668 9.5667 4.25447 9.41042 4.41075C9.25414 4.56703 9.16634 4.779 9.16634 5.00001V5.83334C8.5033 5.83334 7.86742 6.09674 7.39858 6.56558C6.92974 7.03442 6.66635 7.6703 6.66635 8.33334C6.66635 8.99638 6.92974 9.63227 7.39858 10.1011C7.86742 10.57 8.5033 10.8333 9.16634 10.8333H10.833C11.054 10.8333 11.266 10.9211 11.4223 11.0774C11.5785 11.2337 11.6663 11.4457 11.6663 11.6667C11.6663 11.8877 11.5785 12.0997 11.4223 12.2559C11.266 12.4122 11.054 12.5 10.833 12.5H7.49968C7.27866 12.5 7.0667 12.5878 6.91042 12.7441C6.75414 12.9004 6.66635 13.1123 6.66635 13.3333C6.66635 13.5544 6.75414 13.7663 6.91042 13.9226C7.0667 14.0789 7.27866 14.1667 7.49968 14.1667H9.16634V15C9.16634 15.221 9.25414 15.433 9.41042 15.5893C9.5667 15.7455 9.77866 15.8333 9.99968 15.8333C10.2207 15.8333 10.4327 15.7455 10.5889 15.5893C10.7452 15.433 10.833 15.221 10.833 15V14.1667C11.4961 14.1667 12.1319 13.9033 12.6008 13.4344C13.0696 12.9656 13.333 12.3297 13.333 11.6667C13.333 11.0036 13.0696 10.3678 12.6008 9.89891C12.1319 9.43007 11.4961 9.16668 10.833 9.16668H9.16634C8.94533 9.16668 8.73337 9.07888 8.57709 8.9226C8.42081 8.76632 8.33301 8.55436 8.33301 8.33334C8.33301 8.11233 8.42081 7.90037 8.57709 7.74409C8.73337 7.58781 8.94533 7.50001 9.16634 7.50001ZM9.99968 0.833344C8.18668 0.833344 6.4144 1.37096 4.90695 2.37821C3.3995 3.38545 2.22459 4.81709 1.53078 6.49208C0.83698 8.16707 0.655449 10.0102 1.00915 11.7883C1.36284 13.5665 2.23589 15.1998 3.51787 16.4818C4.79985 17.7638 6.43319 18.6368 8.21135 18.9905C9.98951 19.3442 11.8326 19.1627 13.5076 18.4689C15.1826 17.7751 16.6142 16.6002 17.6215 15.0927C18.6287 13.5853 19.1663 11.813 19.1663 10C19.1663 7.56886 18.2006 5.23728 16.4815 3.5182C14.7624 1.79911 12.4308 0.833344 9.99968 0.833344ZM9.99968 17.5C8.51632 17.5 7.06627 17.0601 5.8329 16.236C4.59953 15.4119 3.63824 14.2406 3.07058 12.8701C2.50292 11.4997 2.3544 9.99169 2.64379 8.53683C2.93318 7.08198 3.64748 5.7456 4.69638 4.69671C5.74527 3.64782 7.08164 2.93351 8.5365 2.64412C9.99136 2.35473 11.4994 2.50326 12.8698 3.07091C14.2402 3.63857 15.4116 4.59986 16.2357 5.83323C17.0598 7.0666 17.4997 8.51665 17.4997 10C17.4997 11.9891 16.7095 13.8968 15.303 15.3033C13.8965 16.7098 11.9888 17.5 9.99968 17.5Z" fill="#4D4D4D"/>
</g>
<defs>
<clipPath id="clip0_598_2172">
<rect width="20" height="20" fill="white"/>
</clipPath>
</defs>
</svg>
